M48
; DRILL file {KiCad 9.0.7} date 2026-03-22T11:06:44-0500
; FORMAT={-:-/ absolute / metric / decimal}
; #@! TF.CreationDate,2026-03-22T11:06:44-05:00
; #@! TF.GenerationSoftware,Kicad,Pcbnew,9.0.7
; #@! TF.FileFunction,Plated,1,2,PTH
FMAT,2
METRIC
; #@! TA.AperFunction,Plated,PTH,ViaDrill
T1C0.300
; #@! TA.AperFunction,Plated,PTH,ComponentDrill
T2C1.000
; #@! TA.AperFunction,Plated,PTH,ComponentDrill
T3C1.500
%
G90
G05
T1
X85.5Y-86.5
X89.0Y-94.0
X93.0Y-104.5
X94.5Y-81.0
X95.0Y-121.0
X97.5Y-92.5
X103.5Y-127.5
X104.0Y-132.301
X110.0Y-130.5
X110.5Y-128.5
X113.0Y-127.0
X118.0Y-127.6
X119.5Y-128.0
X120.5Y-130.0
X121.5Y-95.0
X124.0Y-127.5
X127.0Y-76.5
X127.5Y-95.0
X128.0Y-88.5
X131.5Y-127.0
X132.5Y-132.5
X133.0Y-127.5
X135.0Y-105.0
X138.0Y-77.0
X140.399Y-129.737
X146.0Y-133.0
X146.601Y-131.0
X150.0Y-80.0
X152.5Y-84.5
X154.0Y-70.0
X160.0Y-131.9
X161.0Y-130.5
X163.5Y-106.0
X167.048Y-132.048
X167.5Y-128.5
X170.0Y-87.5
X170.0Y-132.5
X177.0Y-107.0
X177.0Y-120.5
X178.5Y-93.0
X178.5Y-108.5
X179.0Y-132.0
X180.0Y-120.5
X181.0Y-106.5
X183.5Y-100.5
X186.0Y-125.4
X187.5Y-110.0
T2
X95.0Y-84.0
X95.0Y-86.54
X95.0Y-89.08
X95.0Y-91.62
X135.0Y-86.1
X135.0Y-88.6
X135.0Y-91.1
X149.5Y-86.1
X149.5Y-91.1
X157.486Y-78.092
X157.486Y-80.632
X157.486Y-83.172
X157.486Y-85.712
X157.486Y-88.252
X157.486Y-90.792
X157.486Y-93.332
X172.736Y-78.092
X172.736Y-80.632
X172.736Y-83.172
X172.736Y-85.712
X172.736Y-88.252
X172.736Y-90.792
X172.736Y-93.332
T3
X101.77Y-114.46
X108.12Y-111.92
X122.27Y-114.46
X128.62Y-111.92
X142.77Y-114.46
X149.12Y-111.92
X163.19Y-114.46
X169.54Y-111.92
T3
G00X141.85Y-83.0
M15
G01X143.15Y-83.0
M16
G05
G00X141.85Y-94.2
M15
G01X143.15Y-94.2
M16
G05
M30
